<svg width="23" height="34" viewBox="0 0 23 34" fill="none" xmlns="http://www.w3.org/2000/svg">
<path fill-rule="evenodd" clip-rule="evenodd" d="M11.4983 31.6864L3.55942 15.513C3.53446 15.4621 3.51017 15.4132 3.48591 15.3643C3.45948 15.3111 3.43308 15.258 3.40593 15.2025C1.28067 10.8634 0.0173821 2.39107 11.4988 2H11.5012C23.1226 2.39583 21.6866 11.0712 19.516 15.3594L11.5017 31.6864C11.5014 31.6871 11.5007 31.6875 11.5 31.6875C11.4997 31.6875 11.4994 31.6874 11.4991 31.6873C11.4988 31.6871 11.4985 31.6868 11.4983 31.6864ZM11.5 18.625C15.435 18.625 18.625 15.435 18.625 11.5C18.625 7.56497 15.435 4.375 11.5 4.375C7.56497 4.375 4.375 7.56497 4.375 11.5C4.375 15.435 7.56497 18.625 11.5 18.625Z" fill="black"/>
<path d="M3.55942 15.513L4.90595 14.852L4.90595 14.852L3.55942 15.513ZM11.4983 31.6864L12.8454 31.0266L12.8448 31.0255L11.4983 31.6864ZM3.48591 15.3643L2.14244 16.0315L2.14244 16.0315L3.48591 15.3643ZM3.40593 15.2025L4.75303 14.5427L4.75303 14.5427L3.40593 15.2025ZM11.4988 2V0.5H11.4733L11.4477 0.500869L11.4988 2ZM11.5012 2L11.5523 0.500869L11.5267 0.5H11.5012V2ZM19.516 15.3594L18.1777 14.6819L18.1735 14.6902L18.1694 14.6984L19.516 15.3594ZM11.5017 31.6864L10.1552 31.0255L10.1547 31.0265L11.5017 31.6864ZM11.4991 31.6873L12.1868 30.3542L12.1858 30.3537L11.4991 31.6873ZM2.21289 16.1739L10.1517 32.3474L12.8448 31.0255L4.90595 14.852L2.21289 16.1739ZM2.14244 16.0315C2.16691 16.0808 2.18969 16.1267 2.21289 16.1739L4.90595 14.852C4.87923 14.7976 4.85343 14.7456 4.82939 14.6972L2.14244 16.0315ZM2.05883 15.8623C2.08807 15.922 2.11625 15.9788 2.14244 16.0315L4.82939 14.6972C4.8027 14.6435 4.7781 14.5939 4.75303 14.5427L2.05883 15.8623ZM11.4477 0.500869C8.40418 0.604535 6.04834 1.24763 4.29499 2.34675C2.5144 3.46296 1.44752 4.99321 0.919199 6.66994C-0.102814 9.91347 0.923896 13.5451 2.05883 15.8623L4.75303 14.5427C3.7627 12.5208 3.09514 9.7467 3.78052 7.57152C4.10589 6.53889 4.74314 5.60655 5.88841 4.88861C7.06093 4.15359 8.85271 3.591 11.5499 3.49913L11.4477 0.500869ZM11.5012 0.5H11.4988V3.5H11.5012V0.5ZM20.8543 16.0368C22.0153 13.7432 23.0994 10.0783 22.1179 6.79092C21.6102 5.09039 20.5564 3.52866 18.7688 2.38715C17.009 1.26337 14.6327 0.605793 11.5523 0.500869L11.4501 3.49913C14.1804 3.59212 15.9826 4.1674 17.1542 4.91559C18.2981 5.64604 18.9287 6.59538 19.2433 7.64918C19.9065 9.87049 19.1873 12.6874 18.1777 14.6819L20.8543 16.0368ZM12.8483 32.3474L20.8625 16.0203L18.1694 14.6984L10.1552 31.0255L12.8483 32.3474ZM11.5 33.1875C12.0744 33.1875 12.5971 32.8602 12.8488 32.3463L10.1547 31.0265C10.4058 30.514 10.9271 30.1875 11.5 30.1875V33.1875ZM10.8114 33.0203C11.0234 33.1297 11.2594 33.1875 11.5 33.1875V30.1875C11.7399 30.1875 11.9753 30.2451 12.1868 30.3542L10.8114 33.0203ZM10.1512 32.3462C10.2959 32.6417 10.5305 32.8757 10.8124 33.0209L12.1858 30.3537C12.467 30.4985 12.701 30.7319 12.8454 31.0266L10.1512 32.3462ZM17.125 11.5C17.125 14.6066 14.6066 17.125 11.5 17.125V20.125C16.2635 20.125 20.125 16.2635 20.125 11.5H17.125ZM11.5 5.875C14.6066 5.875 17.125 8.3934 17.125 11.5H20.125C20.125 6.73654 16.2635 2.875 11.5 2.875V5.875ZM5.875 11.5C5.875 8.3934 8.3934 5.875 11.5 5.875V2.875C6.73654 2.875 2.875 6.73654 2.875 11.5H5.875ZM11.5 17.125C8.3934 17.125 5.875 14.6066 5.875 11.5H2.875C2.875 16.2635 6.73654 20.125 11.5 20.125V17.125Z" fill="black"/>
</svg>
